<?xml version="1.0" encoding="iso-8859-1"?>
<!-- Generator: Adobe Illustrator 19.0.0, SVG Export Plug-In . SVG Version: 6.00 Build 0)  -->
<svg version="1.1" id="Layer_1" xmlns="http://www.w3.org/2000/svg" xmlns:xlink="http://www.w3.org/1999/xlink" x="0px" y="0px"
	 viewBox="0 0 480 480" style="enable-background:new 0 0 480 480;" xml:space="preserve">
<circle style="fill:#F2CF61;" cx="240" cy="240" r="240"/>
<path style="fill:#E16B5A;" d="M194,208.004H62c-13.2,0-26,10.796-26,23.996v104c0,13.2,12.8,24.004,26,24.004h14v20l20-20h98
	c13.2,0,22-10.804,22-24.004V232C216,218.8,207.2,208.004,194,208.004z"/>
<g>
	<path style="fill:#CC6152;" d="M194,208.004h-16c13.2,0,22,10.796,22,23.996v104c0,13.2-8.8,24.004-22,24.004h16
		c13.2,0,22-10.804,22-24.004V232C216,218.8,207.2,208.004,194,208.004z"/>
	<path style="fill:#CC6152;" d="M194,208.004h-22v76.432c0,22.984,20.484,43.148,44,43.532V232C216,218.8,207.2,208.004,194,208.004
		z"/>
</g>
<path style="fill:#406A80;" d="M216.668,100.004h190.664c19.068,0,32.668,15.152,32.668,34.22v150.228
	c0,19.068-13.6,35.56-32.668,35.56H384v28l-28-28H216.668c-19.068,0-36.668-16.492-36.668-35.56V134.224
	C180,115.156,197.6,100.004,216.668,100.004z"/>
<path style="fill:#395F73;" d="M407.332,100.004h-16c19.068,0,32.668,15.152,32.668,34.22v150.228c0,19.068-13.6,35.56-32.668,35.56
	h16c19.068,0,32.668-16.492,32.668-35.56V134.224C440,115.156,426.4,100.004,407.332,100.004z"/>
<g>
	<circle style="fill:#F5F5F5;" cx="254" cy="244" r="12"/>
	<circle style="fill:#F5F5F5;" cx="294" cy="244" r="12"/>
	<circle style="fill:#F5F5F5;" cx="334" cy="244" r="12"/>
	<circle style="fill:#F5F5F5;" cx="374" cy="244" r="12"/>
	<circle style="fill:#F5F5F5;" cx="74" cy="324" r="8"/>
	<circle style="fill:#F5F5F5;" cx="106" cy="324" r="8"/>
	<circle style="fill:#F5F5F5;" cx="138" cy="324" r="8"/>
</g>
<g>
</g>
<g>
</g>
<g>
</g>
<g>
</g>
<g>
</g>
<g>
</g>
<g>
</g>
<g>
</g>
<g>
</g>
<g>
</g>
<g>
</g>
<g>
</g>
<g>
</g>
<g>
</g>
<g>
</g>
</svg>
